# xmcd
#
# Track frame offsets:
#	150
#	16780
#	43952
#	60527
#
# Disc length: 1169 seconds
#
# Revision: 1
# Processed by: cddbd v1.5PL3 Copyright (c) Steve Scherf et al.
# Submitted via: CDex 1.50Beta5
#
DISCID=2b048f04
DTITLE=Wild Child Bound - EVO
DYEAR=1900
DGENRE=Pop
TTITLE0=EVO
TTITLE1=いっしょがいいね
TTITLE2=EVO (オリジナルカラオケ)
TTITLE3=いっしょがいいね (オリジナルカラオケ)
EXTD=デジモンテイマーズ挿入歌
EXTT0=
EXTT1=
EXTT2=
EXTT3=
PLAYORDER=
